<?xml version="1.0" encoding="utf-8"?>
<!-- Generator: Adobe Illustrator 19.2.1, SVG Export Plug-In . SVG Version: 6.00 Build 0)  -->
<svg version="1.1" id="Layer_1" xmlns="http://www.w3.org/2000/svg" xmlns:xlink="http://www.w3.org/1999/xlink" x="0px" y="0px"
	 viewBox="0 0 254.1 113.8" style="enable-background:new 0 0 254.1 113.8;" xml:space="preserve">
<style type="text/css">
	.st0{opacity:0.4;fill:none;stroke:#4C5FAB;stroke-width:2.5;stroke-miterlimit:10;enable-background:new    ;}
	.st1{opacity:0.7;fill:none;stroke:#4C5FAB;stroke-width:2.5;stroke-miterlimit:10;enable-background:new    ;}
	.st2{fill:none;stroke:#4C5FAB;stroke-width:2.5;stroke-miterlimit:10;}
	.st3{fill:#BAC3E4;}
	.st4{fill:#4C5FAB;}
</style>
<path class="st0" d="M80.7,105.3c-15.7,0-27.6-12-27.6-27.9c0-16.1,11.7-28.1,27.6-28.1s27.4,12,27.4,28.1
	C108,93.3,96.4,105.3,80.7,105.3z"/>
<path class="st1" d="M80.7,99.9c-12.7,0-22.3-9.7-22.3-22.6c0-13,9.5-22.7,22.3-22.7s22.2,9.7,22.2,22.7
	C102.8,90.2,93.4,99.9,80.7,99.9z"/>
<path class="st2" d="M80.7,94.3c-9.6,0-16.8-7.3-16.8-17.1s7.2-17.1,16.8-17.1s16.7,7.3,16.7,17.1C97.3,87,90.3,94.3,80.7,94.3z"/>
<g>
	<path class="st3" d="M49.8,52v35.1h18.5v2.4H46.9V52H49.8"/>
</g>
<path class="st3" d="M80.7,90c-7.2,0-12.6-5.5-12.6-12.8c0-7.4,5.4-12.9,12.6-12.9s12.5,5.5,12.5,12.9C93.2,84.5,87.9,90,80.7,90z
	 M80.7,66.9c-5.6,0-9.8,4.3-9.8,10.3c0,5.9,4.2,10.2,9.8,10.2s9.7-4.3,9.7-10.2S86.2,66.9,80.7,66.9z"/>
<g>
	<path class="st4" d="M16.4,47.1V0h2.9v47L16.4,47.1z"/>
</g>
<g>
	<path class="st4" d="M46.9,52l0.2-52h2.6l0.1,52H46.9z"/>
</g>
<path class="st4" d="M66.2,51.7v-7.1h-2.6v8.7C64.8,52.5,65.3,52.2,66.2,51.7z"/>
<path class="st4" d="M80.9,48c0.6,0,1.2,0,1.8,0v-3.4h-2.6V48C80.4,48,80.6,48,80.9,48z"/>
<path class="st3" d="M19.3,45.2c0,3.8-0.5,6.7-2.3,8.4c-2.3,2.3-3.8,2.7-7.4,2.4l-0.3-2.8c4.3,1,7-1.6,7-7.3V7.7h2.9v37.5H19.3z"/>
<path class="st3" d="M44.8,43.2l-0.4,0.3c-2.5,1.9-3.5,2.3-4.6,2.3c-1.2,0-1.5-0.6-1.8-3.1c-2.7,2.1-5.1,3.1-7.8,3.1
	c-3.7,0-6.7-2.8-6.7-6.3c0-6.4,7.2-8.7,14.4-9v-3.1c0-3.3-1.8-5.1-5.5-5.1c-2.6,0-4.6,0.9-7.5,3.1v-2.7c3-1.9,5.3-2.6,8-2.6
	c3.1,0,7.7,1.3,7.7,6.4v15.4c0,1,0.2,1.3,0.6,1.3c0.6,0,2.2-1.2,3.5-2.2L44.8,43.2L44.8,43.2z M38,32.7c-6.4-0.3-11.8,2.5-11.8,6.8
	c0,2.3,2.1,4.1,4.9,4.1c2.4,0,4.3-0.9,6.9-3.2V32.7z"/>
<path class="st3" d="M49.5,24.9L49.5,24.9c2.3-3.5,4.6-4.8,8-4.8c3.8,0,6.4,1.9,8,5.9c2.5-4.1,5-5.9,8.6-5.9c5.2,0,8.6,4,8.6,10
	v15.2h-2.6v-14c0-4.9-2.1-8.6-6.4-8.6c-3,0-5,1.6-7.5,5.8v16.8h-2.6V31.2c0-6.1-3-8.5-6.5-8.5c-3,0-5.1,1.5-7.4,5.3v17.3h-2.8
	l0.2-24.7h2.6v4.3C49.7,24.9,49.5,24.9,49.5,24.9z"/>
<path class="st3" d="M89,32c-0.8,6.3,4.2,11.2,9.8,11.2c3.3,0,6-1.1,9.2-3.7v3c-2.9,2.3-5.9,3.3-9.5,3.3c-7.1,0-12.3-5.5-12.3-13.1
	c0-7.3,4.8-12.5,11.3-12.5c5.3,0,10.9,3.7,10.9,11.9L89,32L89,32z M105.3,29.8c-0.9-4.8-3.6-7.2-7.8-7.2c-4.1,0-7.3,2.7-8.2,7.2
	H105.3z"/>
<path class="st3" d="M126,39c0,3.8-3.5,6.8-8.1,6.8c-2.5,0-4.9-0.7-7.4-2.3v-2.6c3.2,1.7,5.4,2.3,7.8,2.3c3,0,5.2-1.8,5.2-4.3
	c0-5.9-12.8-4.1-12.8-12c0-3.8,3.5-6.8,8-6.8c2.1,0,4.1,0.7,6.6,2.1c0,0,0,2.8,0,2.8c-2.7-1.8-4.6-2.5-6.8-2.5c-3,0-5.3,1.8-5.3,4.2
	C113.2,32.6,126,30.4,126,39"/>
<path class="st4" d="M117.9,45.8c-0.1,0-0.3,0-0.4,0v68.1l2.6-0.1V45.6C119.4,45.7,118.7,45.8,117.9,45.8z"/>
<g>
	<path class="st4" d="M142.6,114V52h2.6v62L142.6,114z"/>
</g>
<g>
	<path class="st4" d="M134.9,114.1V87h2.6v27.2H134.9z"/>
</g>
<g>
	<path class="st4" d="M160,113.8V87h2.6v26.8H160z"/>
</g>
<g>
	<path class="st4" d="M231.8,113.8V0h2.6v113.6L231.8,113.8z"/>
</g>
<g>
	<path class="st3" d="M107.8,64.5c2.1,0,3.8,0.3,6.5,1.2v2.8c-2.9-1.2-4.3-1.5-6.4-1.5c-5.5,0-9.3,4.2-9.3,10.3
		c0,6.2,3.7,10.2,9.5,10.2c2.3,0,3.9-0.3,6.7-1.4v2.8c-2.8,0.9-4.6,1.3-6.9,1.3c-7.3,0-12.1-5-12.1-12.5
		C95.8,69.9,100.7,64.5,107.8,64.5"/>
</g>
<path class="st3" d="M120.1,69.1L120.1,69.1c2.4-3.5,4.7-4.8,8.2-4.8c5.3,0,9.2,3.5,9.2,10.1v15.1h-2.6v-14c0-5.3-2-8.5-6.7-8.5
	c-3.6,0-5.8,1.8-8.1,5.3v17.3h-2.6V52h2.6V69.1z"/>
<path class="st3" d="M145.2,69.1h0.1c2.3-3.5,4.6-4.8,8.1-4.8c5.3,0,9.2,3.5,9.2,10.1v15.1H160v-14c0-5.3-2-8.5-6.7-8.5
	c-3.6,0-5.8,1.8-8.1,5.3v17.3h-2.6V52h2.6V69.1z"/>
<path class="st3" d="M169,76.3c-0.8,6.3,4.2,11.2,9.8,11.2c3.3,0,6-1.1,9.2-3.7v3c-2.9,2.3-5.9,3.3-9.5,3.3
	c-7.1,0-12.3-5.5-12.3-13.1c0-7.3,4.8-12.5,11.3-12.5c5.3,0,10.9,3.7,10.9,11.9L169,76.3L169,76.3z M185.4,74.1
	c-0.9-4.8-3.6-7.2-7.8-7.2c-4.1,0-7.3,2.7-8.2,7.2H185.4z"/>
<path class="st3" d="M211.7,87.5l-0.4,0.3c-2.5,1.9-3.5,2.3-4.6,2.3c-1.2,0-1.5-0.6-1.8-3.1c-2.7,2.1-5.1,3.1-7.8,3.1
	c-3.7,0-6.7-2.8-6.7-6.3c0-6.4,7.2-8.7,14.4-9v-3.1c0-3.3-1.8-5.1-5.5-5.1c-2.6,0-4.6,0.9-7.5,3.1V67c3-1.9,5.3-2.6,8-2.6
	c3.1,0,7.7,1.3,7.7,6.4v15.4c0,1,0.2,1.3,0.6,1.3c0.6,0,2.2-1.2,3.5-2.2L211.7,87.5L211.7,87.5z M204.9,77
	c-6.4-0.3-11.8,2.5-11.8,6.8c0,2.3,2.1,4.1,4.9,4.1c2.4,0,4.3-0.9,6.9-3.2L204.9,77L204.9,77z"/>
<path class="st3" d="M234.5,89.5h-2.6v-1.9c-2.6,1.8-4.5,2.4-7.3,2.4c-7,0-12.5-5.6-12.5-12.9c0-7.4,5.3-12.8,12.5-12.8
	c2.5,0,4.3,0.5,7.3,2V52h2.6V89.5z M231.8,69.3c-2.7-1.7-4.6-2.3-7.2-2.3c-5.7,0-9.8,4.2-9.8,10.1c0,6,4.4,10.4,10.3,10.4
	c2.5,0,4.1-0.5,6.7-2.3V69.3z"/>
<g>
	<path class="st4" d="M142.6,52V0h2.9l-0.3,52H142.6z"/>
</g>
<path class="st3" d="M152.2,7.7c9.2,0,12.4,4.7,12.4,9.7c0,4.3-2.4,7.4-7.1,9.1c1.8,0.9,3.2,3.1,5,5.7l8.5,13h-3.4L161,35
	c-4.5-7.1-5.9-7.7-10.4-7.7h-5.1l-0.3,18h-2.6V7.7H152.2z M145.5,24.8h6.2c6.6,0,9.8-2.9,9.8-7.4c0-4.2-3-7.3-9.9-7.3h-6.1V24.8z"/>
<path class="st3" d="M177.7,45.2h-3.6v-5.3h3.6V45.2z"/>
</svg>
