<?xml version="1.0" encoding="utf-8"?>
<!-- Generator: Adobe Illustrator 19.2.1, SVG Export Plug-In . SVG Version: 6.00 Build 0)  -->
<svg version="1.1" id="Layer_1" xmlns="http://www.w3.org/2000/svg" xmlns:xlink="http://www.w3.org/1999/xlink" x="0px" y="0px"
	 viewBox="0 0 454.4 65.9" style="enable-background:new 0 0 454.4 65.9;" xml:space="preserve">
<style type="text/css">
	.st0{fill:none;stroke:#4C5FAB;stroke-width:2.5;stroke-miterlimit:10;}
	.st1{fill:#4C5FAB;}
	.st2{fill:#BAC3E4;}
</style>
<path class="st0" d="M233.6,55.6c-12.7,0-22.3-9.7-22.3-22.6c0-13,9.5-22.7,22.3-22.7s22.2,9.7,22.2,22.7
	C255.7,45.9,246.3,55.6,233.6,55.6z"/>
<path class="st0" d="M233.6,50c-9.6,0-16.8-7.3-16.8-17.1c0-9.8,7.2-17.1,16.8-17.1s16.7,7.3,16.7,17.1
	C250.2,42.7,243.2,50,233.6,50z"/>
<g>
	<path class="st1" d="M16.4,65.9V0h2.9v65.8L16.4,65.9z"/>
</g>
<g>
	<path class="st1" d="M46.8,65.9V0h2.6v65.8L46.8,65.9z"/>
</g>
<g>
	<path class="st1" d="M63.4,65.9V45.2H66v20.6L63.4,65.9z"/>
</g>
<g>
	<path class="st1" d="M79.9,65.9V45.2h2.6v20.6L79.9,65.9z"/>
</g>
<g>
	<path class="st1" d="M144.7,65.9V0h2.9v65.8L144.7,65.9z"/>
</g>
<g>
	<path class="st1" d="M199.7,65.9V0h2.9v65.8L199.7,65.9z"/>
</g>
<g>
	<path class="st1" d="M270.4,65.9V0h2.6v65.8L270.4,65.9z"/>
</g>
<g>
	<path class="st1" d="M295.5,65.9V0h2.6v65.8L295.5,65.9z"/>
</g>
<g>
	<path class="st1" d="M287.8,65.9V45.3h2.6v20.6L287.8,65.9z"/>
</g>
<g>
	<path class="st1" d="M312.9,65.9V45.3h2.6v20.6L312.9,65.9z"/>
</g>
<g>
	<path class="st1" d="M384.7,65.9V0h2.6v65.8L384.7,65.9z"/>
</g>
<g>
	<path class="st2" d="M19.3,45.2c0,3.8-0.5,6.7-2.3,8.4c-2.3,2.3-3.8,2.7-7.4,2.4l-0.3-2.8c4.3,1,7-1.6,7-7.3V7.7h2.9V45.2z"/>
	<path class="st2" d="M44.8,43.2l-0.4,0.3c-2.5,1.9-3.5,2.3-4.6,2.3c-1.2,0-1.5-0.6-1.8-3.1c-2.7,2.1-5.1,3.1-7.8,3.1
		c-3.7,0-6.7-2.8-6.7-6.3c0-6.4,7.2-8.7,14.4-9v-3.1c0-3.3-1.8-5.1-5.5-5.1c-2.6,0-4.6,0.9-7.5,3.1v-2.7c3-1.9,5.3-2.6,8-2.6
		c3.1,0,7.7,1.3,7.7,6.4v15.4c0,1,0.2,1.3,0.6,1.3c0.6,0,2.2-1.2,3.5-2.2V43.2z M38,32.7c-6.4-0.3-11.8,2.5-11.8,6.8
		c0,2.3,2.1,4.1,4.9,4.1c2.4,0,4.3-0.9,6.9-3.2V32.7z"/>
	<path class="st2" d="M49.5,24.9h0.1c2.2-3.5,4.5-4.8,7.9-4.8c3.8,0,6.4,1.9,8,5.9c2.5-4.1,5-5.9,8.6-5.9c5.2,0,8.6,4,8.6,10v15.2
		h-2.6v-14c0-4.9-2.1-8.6-6.4-8.6c-3,0-5,1.6-7.5,5.8v16.8h-2.6V31.2c0-6.1-3-8.5-6.5-8.5c-3,0-5.1,1.5-7.4,5.3v17.3h-2.6V20.6h2.6
		V24.9z"/>
	<path class="st2" d="M89,32c-0.8,6.3,4.2,11.2,9.8,11.2c3.3,0,6-1.1,9.2-3.7v3c-2.9,2.3-5.9,3.3-9.5,3.3c-7.1,0-12.3-5.5-12.3-13.1
		c0-7.3,4.8-12.5,11.3-12.5c5.3,0,10.9,3.7,10.9,11.9H89z M105.3,29.8c-0.9-4.8-3.6-7.2-7.8-7.2c-4.1,0-7.3,2.7-8.2,7.2H105.3z"/>
	<path class="st2" d="M125.3,25c-2.7-1.8-4.6-2.5-6.8-2.5c-3,0-5.3,1.8-5.3,4.2c0,5.9,12.8,3.7,12.8,12.3c0,3.8-3.5,6.8-8.1,6.8
		c-2.5,0-4.9-0.7-7.4-2.3v-2.6c3.2,1.7,5.4,2.3,7.8,2.3c3,0,5.2-1.8,5.2-4.3c0-5.9-12.8-4.1-12.8-12c0-3.8,3.5-6.8,8-6.8
		c2.1,0,4.1,0.7,6.6,2.1V25z"/>
	<path class="st2" d="M154.3,7.7c9.2,0,12.4,4.7,12.4,9.7c0,4.3-2.4,7.4-7.1,9.1c1.8,0.9,3.2,3.1,5,5.7l8.5,13h-3.4L163.1,35
		c-4.5-7.1-5.9-7.7-10.4-7.7h-5.1v18h-2.9V7.7H154.3z M147.6,24.8h6.2c6.6,0,9.8-2.9,9.8-7.4c0-4.2-3-7.3-9.9-7.3h-6.1V24.8z"/>
	<path class="st2" d="M179.8,45.2h-3.6v-5.3h3.6V45.2z"/>
	<path class="st2" d="M202.7,42.8h18.5v2.4h-21.4V7.7h2.9V42.8z"/>
	<path class="st2" d="M233.6,45.7c-7.2,0-12.6-5.5-12.6-12.8c0-7.4,5.4-12.9,12.6-12.9s12.5,5.5,12.5,12.9
		C246.1,40.2,240.8,45.7,233.6,45.7z M233.6,22.6c-5.6,0-9.8,4.3-9.8,10.3c0,5.9,4.2,10.2,9.8,10.2c5.6,0,9.7-4.3,9.7-10.2
		C243.3,27,239.1,22.6,233.6,22.6z"/>
	<path class="st2" d="M267.2,24.2c-2.9-1.2-4.3-1.5-6.4-1.5c-5.5,0-9.3,4.2-9.3,10.3c0,6.2,3.7,10.2,9.5,10.2c2.3,0,3.9-0.3,6.7-1.4
		v2.8c-2.8,0.9-4.6,1.3-6.9,1.3c-7.3,0-12.1-5-12.1-12.5c0-7.8,4.9-13.2,12-13.2c2.1,0,3.8,0.3,6.5,1.2V24.2z"/>
	<path class="st2" d="M273,24.8h0.1c2.3-3.5,4.6-4.8,8.1-4.8c5.3,0,9.2,3.5,9.2,10.1v15.1h-2.6V31.2c0-5.3-2-8.5-6.7-8.5
		c-3.6,0-5.8,1.8-8.1,5.3v17.3h-2.6V7.7h2.6V24.8z"/>
	<path class="st2" d="M298.1,24.8h0.1c2.3-3.5,4.6-4.8,8.1-4.8c5.3,0,9.2,3.5,9.2,10.1v15.1h-2.6V31.2c0-5.3-2-8.5-6.7-8.5
		c-3.6,0-5.8,1.8-8.1,5.3v17.3h-2.6V7.7h2.6V24.8z"/>
	<path class="st2" d="M321.9,32c-0.8,6.3,4.2,11.2,9.8,11.2c3.3,0,6-1.1,9.2-3.7v3c-2.9,2.3-5.9,3.3-9.5,3.3
		c-7.1,0-12.3-5.5-12.3-13.1c0-7.3,4.8-12.5,11.3-12.5c5.3,0,10.9,3.7,10.9,11.9H321.9z M338.3,29.8c-0.9-4.8-3.6-7.2-7.8-7.2
		c-4.1,0-7.3,2.7-8.2,7.2H338.3z"/>
	<path class="st2" d="M364.6,43.2l-0.4,0.3c-2.5,1.9-3.5,2.3-4.6,2.3c-1.2,0-1.5-0.6-1.8-3.1c-2.7,2.1-5.1,3.1-7.8,3.1
		c-3.7,0-6.7-2.8-6.7-6.3c0-6.4,7.2-8.7,14.4-9v-3.1c0-3.3-1.8-5.1-5.5-5.1c-2.6,0-4.6,0.9-7.5,3.1v-2.7c3-1.9,5.3-2.6,8-2.6
		c3.1,0,7.7,1.3,7.7,6.4v15.4c0,1,0.2,1.3,0.6,1.3c0.6,0,2.2-1.2,3.5-2.2V43.2z M357.8,32.7c-6.4-0.3-11.8,2.5-11.8,6.8
		c0,2.3,2.1,4.1,4.9,4.1c2.4,0,4.3-0.9,6.9-3.2V32.7z"/>
	<path class="st2" d="M387.4,45.2h-2.6v-1.9c-2.6,1.8-4.5,2.4-7.3,2.4c-7,0-12.5-5.6-12.5-12.9c0-7.4,5.3-12.8,12.5-12.8
		c2.5,0,4.3,0.5,7.3,2V7.7h2.6V45.2z M384.7,25c-2.7-1.7-4.6-2.3-7.2-2.3c-5.7,0-9.8,4.2-9.8,10.1c0,6,4.4,10.4,10.3,10.4
		c2.5,0,4.1-0.5,6.7-2.3V25z"/>
</g>
<g>
</g>
<g>
</g>
<g>
</g>
<g>
</g>
<g>
</g>
<g>
</g>
</svg>
